<?xml version="1.0" encoding="UTF-8"?>
<svg version="1.1" xmlns="http://www.w3.org/2000/svg" viewBox="0 0 816 816" width="816" height="816">
<path d="M474 53 C473.63350342 53.94915283 473.26700684 54.89830566 472.8894043 55.8762207 C460.67641299 87.48516537 460.67641299 87.48516537 454.8125 101.6875 C449.60626562 114.32427966 444.67761208 127.06511372 439.75 139.8125 C434.04321912 154.57318334 428.3306454 169.33097427 422.5267334 184.05380249 C421.89246069 185.66291115 421.25889575 187.272299 420.62609863 188.88198853 C420.17744446 190.02285416 420.17744446 190.02285416 419.71972656 191.18676758 C419.43199371 191.91856232 419.14426086 192.65035706 418.84780884 193.40432739 C418.0402935 195.43954171 417.21404729 197.46629993 416.38525391 199.49291992 C414.99401423 202.87440679 414.99401423 202.87440679 414.11083984 205.9387207 C413.31168139 208.38507945 412.69740456 210.06589592 411 212 C407.24701727 213.54342252 403.51903018 213.84439013 399.5 214.1875 C397.23302664 214.46308448 394.96736991 214.74970498 392.703125 215.046875 C391.00833008 215.26633789 391.00833008 215.26633789 389.27929688 215.49023438 C381.27868723 216.73392652 373.64159392 219.39123833 366 222 C364.83597656 222.37769531 363.67195312 222.75539062 362.47265625 223.14453125 C339.66222815 231.12395171 319.82901455 247.78703377 302.73828125 264.40234375 C300 267 300 267 298 268 C298 268.66 298 269.32 298 270 C297.34 270 296.68 270 296 270 C282.2463432 282.97304385 275.65288576 298.34444593 272.10546875 316.48046875 C266.86888743 342.96608428 250.63770799 357.02539163 230.05078125 372.66796875 C227.33586959 374.74325974 224.66027524 376.85544855 222 379 C218.33347969 381.95325832 214.61808314 384.83190463 210.875 387.6875 C203.73471858 393.14576777 196.77390072 398.81864154 189.8203125 404.51171875 C188.22738135 405.81409379 186.6297048 407.11066032 185.03125 408.40625 C182.34175284 410.58948887 179.67028058 412.7933098 177 415 C176.10474609 415.72582275 176.10474609 415.72582275 175.19140625 416.46630859 C173.2425482 418.04902053 171.30808015 419.64807425 169.375 421.25 C168.44953369 421.99358765 168.44953369 421.99358765 167.50537109 422.75219727 C165.12309384 424.74795054 163.23196487 426.5496708 161.80078125 429.328125 C162.12776297 433.71352684 164.46582381 436.86406741 166.8125 440.5 C167.56539307 441.69496094 167.56539307 441.69496094 168.33349609 442.9140625 C172.82897876 449.94629192 177.67622224 456.57145136 183 463 C183.72703125 463.88042969 184.4540625 464.76085937 185.203125 465.66796875 C202.84255906 486.13098128 227.40526147 498.23071372 254 502 C256.73079497 502.12611162 259.43656269 502.21013359 262.16796875 502.23828125 C262.95166336 502.24816574 263.73535797 502.25805023 264.5428009 502.26823425 C292.22051361 502.54442696 317.52493994 499.07736013 344.19140625 491.8046875 C349.75779363 490.29256169 355.32298495 489.01808408 361 488 C360.38253906 488.98097656 359.76507813 489.96195312 359.12890625 490.97265625 C356.40589671 495.30681139 353.70078437 499.65196999 351 504 C350.41605469 504.93634277 350.41605469 504.93634277 349.8203125 505.89160156 C327.37702689 542.00380314 310.28346348 583.97607192 309 627 C308.96003906 628.14855469 308.92007813 629.29710937 308.87890625 630.48046875 C308.18888354 668.99997162 322.77773798 701.0092422 348.4375 729.25 C348.9334668 729.79922119 349.42943359 730.34844238 349.94042969 730.91430664 C352.41504842 733.57599979 354.58087282 735.67438095 358 737 C361.1042533 733.90831452 364.18603682 730.79585079 367.2578125 727.671875 C382.59296766 712.13371983 382.59296766 712.13371983 390.62109375 705.8828125 C393.07205107 703.94297436 395.33832451 701.88015847 397.625 699.75 C423.47241885 676.27090704 454.67205823 657.97943112 484.3125 639.8125 C494.30615919 633.68371549 504.21378695 627.45436511 514 621 C515.26650391 620.16855469 515.26650391 620.16855469 516.55859375 619.3203125 C526.93160161 612.50418969 537.25779556 605.70343848 547 598 C547.61149902 597.51708496 548.22299805 597.03416992 548.85302734 596.53662109 C557.90233591 589.36293122 566.62296878 581.95042315 575 574 C575.6290625 573.42378906 576.258125 572.84757813 576.90625 572.25390625 C601.30631406 549.17743057 617.68219423 514.82552749 619.45703125 481.43359375 C620.86163269 430.8831267 598.38737273 378.37947767 572.18652344 335.93945312 C571.03318019 334.05423528 569.92096852 332.15074054 568.8203125 330.234375 C563.94316417 321.80108879 558.50626546 313.84812749 552.78393555 305.96313477 C546.92998945 297.8043049 543.6632782 291.20769378 545 281 C546.35381578 275.80576804 548.11030982 270.7935158 549.9375 265.75 C550.64614301 263.75795535 551.34969089 261.76433433 552.04652405 259.76812744 C552.67730012 257.96660136 553.32245644 256.1701289 553.96850586 254.37402344 C555.60871327 249.0088953 556.1496142 243.71694452 556.1875 238.125 C556.20167969 237.17882812 556.21585938 236.23265625 556.23046875 235.2578125 C555.71648652 227.99236882 553.68669786 221.62549238 550.625 215.0625 C550.28049805 214.30582031 549.93599609 213.54914063 549.58105469 212.76953125 C548.39654252 210.17537732 547.19857453 207.58768458 546 205 C545.07509323 202.98847781 544.15063381 200.97674988 543.2265625 198.96484375 C540.6814378 193.43205604 538.12440384 187.90484695 535.56445312 182.37890625 C533.03772975 176.92168848 530.51910297 171.46073853 528 166 C524.96804523 159.42820209 521.93453244 152.85714283 518.89453125 146.2890625 C514.09592116 135.91669972 509.31652358 125.53765041 504.64379883 115.10791016 C502.25289981 109.77465172 499.84498468 104.44936998 497.42578125 99.12890625 C497.10741806 98.42865829 496.78905487 97.72841034 496.46104431 97.00694275 C494.82120996 93.40132248 493.17936948 89.7966294 491.53491211 86.19311523 C488.69658131 79.96858323 485.87119708 73.74157936 483.140625 67.46875 C482.5228418 66.05819336 482.5228418 66.05819336 481.89257812 64.61914062 C481.1530245 62.92385617 480.42197176 61.22482711 479.70117188 59.52148438 C478.87965996 57.64445413 477.95039905 55.81517657 477 54 C476.01 53.67 475.02 53.34 474 53 Z M320 80 C317.26243266 89.63973179 315.34059621 99.28617642 313.8125 109.1875 C313.56258301 110.78827393 313.56258301 110.78827393 313.30761719 112.42138672 C307.63817366 150.37871857 312.57034921 187.09351986 322 224 C323.20907902 223.33468668 324.4171795 222.66759533 325.625 222 C326.45644531 221.54238281 327.28789062 221.08476562 328.14453125 220.61328125 C330.11916154 219.49765565 332.07406409 218.34664584 334.01171875 217.16796875 C349.64791951 207.78624829 366.32292927 202.18572915 384 198 C385.33377676 197.66844542 386.66723417 197.33559517 388 197 C386.59791275 193.25145849 384.88324944 189.88143494 382.875 186.421875 C382.25633057 185.35275879 381.63766113 184.28364258 381.00024414 183.18212891 C380.01012329 181.4832251 380.01012329 181.4832251 379 179.75 C378.31151881 178.56313255 377.62328845 177.37611957 376.93530273 176.18896484 C372.95780505 169.33232703 368.94419056 162.49734411 364.90893555 155.67456055 C360.27505108 147.81318821 355.77219348 139.87636219 351.25219727 131.94921875 C345.90274007 122.56890188 340.52005294 113.20840155 335.11181641 103.86181641 C332.50440385 99.35350237 329.9017553 94.8439605 327.35546875 90.30078125 C326.97970703 89.63224121 326.60394531 88.96370117 326.21679688 88.27490234 C325.279216 86.60122264 324.34823135 84.92385212 323.41796875 83.24609375 C322.19702223 80.88284973 322.19702223 80.88284973 320 80 Z " fill="#000000" transform="translate(0,0)"/>
</svg>
